<svg width="512" height="512" viewBox="0 0 512 512" fill="none" xmlns="http://www.w3.org/2000/svg">
<path d="M89.4037 208.879L140.297 203.503L156.425 356.173L105.532 361.549L89.4037 208.879ZM198.016 180.318C199.13 180.2 200.211 179.863 201.195 179.328C202.18 178.792 203.049 178.067 203.753 177.196C204.458 176.324 204.984 175.322 205.301 174.247C205.618 173.173 205.72 172.046 205.602 170.931L203.802 153.958C203.683 152.844 203.347 151.764 202.811 150.779C202.276 149.795 201.551 148.926 200.68 148.221C199.808 147.517 198.806 146.991 197.731 146.674C196.656 146.356 195.529 146.254 194.415 146.372L24.7466 164.326C23.6322 164.445 22.5519 164.781 21.5674 165.317C20.583 165.852 19.7138 166.577 19.0093 167.448C18.3049 168.32 17.779 169.322 17.4618 170.397C17.1446 171.472 17.0422 172.599 17.1605 173.713L18.9525 190.686C19.0706 191.8 19.4072 192.881 19.9428 193.865C20.4785 194.849 21.2029 195.719 22.0745 196.423C22.9462 197.128 23.9481 197.653 25.023 197.971C26.0979 198.288 27.2247 198.39 28.3392 198.272L198.016 180.318ZM100.591 70.4853C95.3361 71.0264 90.382 73.197 86.4221 76.6933C82.4621 80.1896 79.6945 84.8367 78.5066 89.984L126.293 84.9323C124.058 80.1384 120.377 76.1662 115.766 73.5746C111.155 70.983 105.848 69.9025 100.591 70.4853ZM48.3584 144.657L167.168 132.087C168.282 131.969 169.363 131.633 170.347 131.097C171.332 130.561 172.201 129.837 172.905 128.965C173.61 128.094 174.136 127.092 174.453 126.017C174.77 124.942 174.872 123.815 174.754 122.701L172.962 105.737C172.845 104.621 172.509 103.54 171.974 102.555C171.439 101.569 170.715 100.699 169.843 99.9937C168.971 99.2884 167.969 98.7618 166.893 98.444C165.818 98.1263 164.691 98.0236 163.575 98.1419L44.7744 110.72C43.6599 110.838 42.5796 111.175 41.5952 111.71C40.6108 112.246 39.7415 112.97 39.037 113.842C38.3326 114.714 37.8067 115.716 37.4895 116.79C37.1723 117.865 37.0699 118.992 37.1882 120.107L38.9802 137.079C39.221 139.327 40.3437 141.387 42.102 142.808C43.8602 144.229 46.1103 144.894 48.3584 144.657ZM224.171 260.07L234.667 189.969C236.211 179.88 241.306 170.674 249.034 164.007C256.761 157.339 266.615 153.649 276.821 153.6H405.845C416.054 153.65 425.91 157.342 433.638 164.013C441.366 170.684 446.459 179.894 448 189.986L458.59 260.335C469.457 270.59 478.954 282.206 486.844 294.895L474.752 174.08C473.519 161.444 467.62 149.722 458.208 141.201C448.796 132.681 436.546 127.974 423.851 128H258.816C251.302 128.011 243.884 129.688 237.096 132.91C230.309 136.133 224.32 140.821 219.563 146.637C220.183 148.429 220.606 150.283 220.826 152.166L222.618 169.139C223.203 174.828 221.866 180.549 218.821 185.39C215.776 190.231 211.197 193.913 205.815 195.849L195.797 295.159C203.667 282.264 213.207 270.465 224.171 260.07ZM145.459 494.788C150.717 494.254 155.677 492.088 159.643 488.595C163.609 485.102 166.384 480.455 167.578 475.307L119.748 480.367C121.985 485.159 125.67 489.129 130.283 491.716C134.895 494.303 140.203 495.378 145.459 494.788ZM221.346 400.956C222.461 400.838 223.541 400.501 224.525 399.965C225.51 399.43 226.379 398.705 227.083 397.834C227.788 396.962 228.314 395.96 228.631 394.885C228.948 393.81 229.051 392.684 228.932 391.569L227.14 374.596C227.022 373.482 226.686 372.401 226.15 371.417C225.614 370.433 224.89 369.563 224.018 368.859C223.147 368.154 222.145 367.629 221.07 367.311C219.995 366.994 218.868 366.892 217.754 367.01L48.0256 384.93C46.9111 385.048 45.8308 385.385 44.8464 385.92C43.862 386.456 42.9927 387.18 42.2882 388.052C41.5838 388.924 41.0579 389.926 40.7407 391.001C40.4235 392.075 40.3211 393.202 40.4394 394.317L42.2485 411.307C42.3601 412.424 42.6923 413.508 43.2259 414.495C43.7595 415.483 44.4839 416.355 45.3571 417.061C46.2302 417.766 47.2347 418.292 48.3124 418.606C49.3901 418.921 50.5195 419.018 51.6352 418.893L221.346 400.956Z" fill="white"/>
<path d="M494.694 375.902C492.711 338.68 477.251 303.451 451.2 276.79C425.15 250.129 390.289 233.858 353.122 231.013C315.956 228.168 279.024 238.943 249.219 261.329C219.414 283.714 198.773 316.179 191.147 352.666L216.004 350.037C219.348 349.682 222.73 349.99 225.955 350.942C229.18 351.894 232.186 353.473 234.801 355.587C237.416 357.701 239.589 360.31 241.196 363.264C242.802 366.218 243.811 369.46 244.164 372.804L245.956 389.777C246.311 393.121 246.004 396.502 245.052 399.727C244.099 402.953 242.521 405.959 240.407 408.574C238.293 411.189 235.684 413.362 232.73 414.968C229.775 416.575 226.534 417.584 223.189 417.937L221.619 418.108C222.921 420.713 223.758 423.526 224.094 426.419L225.886 443.383C226.426 448.315 225.511 453.297 223.253 457.714C220.995 462.131 217.493 465.791 213.18 468.241C216.327 473.152 219.772 477.866 223.497 482.355C226.725 486.27 230.775 489.426 235.36 491.6C239.945 493.774 244.952 494.912 250.027 494.933H432.64C437.64 494.933 442.579 493.843 447.115 491.74C451.651 489.637 455.675 486.572 458.906 482.756C484.009 452.996 496.809 414.778 494.694 375.902ZM469.581 381.474H468.864C466.718 381.482 464.649 380.68 463.067 379.23C461.486 377.78 460.509 375.787 460.331 373.649C457.745 346.258 445.871 320.575 426.678 300.862C407.485 281.149 382.128 268.592 354.816 265.276C350.338 264.789 345.838 264.541 341.333 264.533C339.07 264.533 336.9 263.634 335.299 262.034C333.699 260.434 332.8 258.263 332.8 256C332.8 253.737 333.699 251.566 335.299 249.966C336.9 248.366 339.07 247.467 341.333 247.467C346.465 247.476 351.592 247.761 356.693 248.32C387.931 252.109 416.933 266.467 438.885 289.012C460.836 311.556 474.417 340.931 477.372 372.258C477.551 374.508 476.832 376.737 475.372 378.458C473.912 380.178 471.83 381.251 469.581 381.44V381.474Z" fill="white"/>
<path d="M197.692 420.625L78.8821 433.186C77.7676 433.304 76.6873 433.641 75.7029 434.176C74.7185 434.712 73.8492 435.436 73.1448 436.308C72.4403 437.18 71.9145 438.182 71.5973 439.257C71.28 440.331 71.1777 441.458 71.296 442.573L73.088 459.554C73.3287 461.803 74.4526 463.865 76.2127 465.286C77.9729 466.707 80.2252 467.371 82.4746 467.132L201.284 454.571C202.399 454.453 203.479 454.116 204.463 453.58C205.448 453.045 206.317 452.32 207.022 451.449C207.726 450.577 208.252 449.575 208.569 448.5C208.886 447.425 208.989 446.298 208.87 445.184L207.078 428.22C206.961 427.104 206.626 426.023 206.09 425.038C205.555 424.053 204.831 423.182 203.959 422.477C203.087 421.772 202.085 421.245 201.01 420.927C199.934 420.61 198.807 420.507 197.692 420.625Z" fill="white"/>
</svg>
